M48
; DRILL file {KiCad 8.0.1} date 2024-04-06T12:24:50+0100
; FORMAT={-:-/ absolute / inch / decimal}
; #@! TF.CreationDate,2024-04-06T12:24:50+01:00
; #@! TF.GenerationSoftware,Kicad,Pcbnew,8.0.1
; #@! TF.FileFunction,Plated,1,2,PTH
FMAT,2
INCH
; #@! TA.AperFunction,Plated,PTH,ViaDrill
T1C0.0157
; #@! TA.AperFunction,Plated,PTH,ComponentDrill
T2C0.0315
; #@! TA.AperFunction,Plated,PTH,ComponentDrill
T3C0.0591
%
G90
G05
T1
X4.7047Y-2.6575
X4.7047Y-2.8937
X4.7047Y-3.1102
X4.7047Y-3.3465
X4.7047Y-3.5827
X4.7047Y-3.7992
X4.7047Y-4.0354
X4.7047Y-4.252
X5.0015Y-2.6181
X5.0015Y-2.7756
X5.0015Y-3.0118
X5.0015Y-3.248
X5.0015Y-3.4646
X5.0015Y-3.7008
X5.0015Y-3.937
X5.0015Y-4.1535
T2
X4.6457Y-2.2361
X4.7244Y-2.2361
X4.8031Y-2.2361
T3
X4.563Y-2.2361
X4.8858Y-2.2361
M30
